<?xml version="1.0" encoding="UTF-8"?>
<svg xmlns="http://www.w3.org/2000/svg" xmlns:xlink="http://www.w3.org/1999/xlink" viewBox="0 0 30 30" width="30px" height="30px">
<g id="surface71629674">
<path style="fill-rule:nonzero;fill:rgb(0%,0%,0%);fill-opacity:1;stroke-width:12;stroke-linecap:butt;stroke-linejoin:round;stroke:rgb(100%,100%,100%);stroke-opacity:1;stroke-miterlimit:10;" d="M 157.666666 86 C 157.666666 125.498106 125.498106 157.666666 86 157.666666 C 46.501894 157.666666 14.333333 125.498106 14.333333 86 C 14.333333 46.501894 46.501894 14.333333 86 14.333333 C 125.498106 14.333333 157.666666 46.501894 157.666666 86 Z M 28.657085 86 C 28.657085 114.455882 49.232509 137.881684 76.347036 142.456662 L 76.347036 103.102272 L 60.394496 103.102272 L 60.394496 86.143716 L 76.347036 86.143716 L 76.347036 74.861965 C 76.347036 56.17881 85.449086 47.986965 100.970476 47.986965 C 108.419786 47.986965 112.348039 48.537879 114.216354 48.777406 L 114.216354 63.580214 L 103.629233 63.580214 C 97.018271 63.580214 94.742758 69.831885 94.742758 76.873997 L 94.742758 86.143716 L 114.048685 86.143716 L 111.413881 103.102272 L 94.742758 103.102272 L 94.742758 142.600378 C 122.312388 138.408645 143.342914 114.767268 143.342914 86 C 143.342914 54.262589 117.73741 28.657085 86 28.657085 C 54.262589 28.657085 28.657085 54.262589 28.657085 86 Z M 28.657085 86 " transform="matrix(0.163081,0,0,0.163081,0.975,0.975)"/>
<path style=" stroke:none;fill-rule:nonzero;fill:rgb(0%,0%,0%);fill-opacity:1;" d="M 15 3.3125 C 8.558594 3.3125 3.3125 8.558594 3.3125 15 C 3.3125 21.441406 8.558594 26.6875 15 26.6875 C 21.441406 26.6875 26.6875 21.441406 26.6875 15 C 26.6875 8.558594 21.441406 3.3125 15 3.3125 Z M 15 5.648438 C 20.175781 5.648438 24.351562 9.824219 24.351562 15 C 24.351562 19.691406 20.921875 23.546875 16.425781 24.230469 L 16.425781 17.789062 L 19.144531 17.789062 L 19.574219 15.023438 L 16.425781 15.023438 L 16.425781 13.511719 C 16.425781 12.363281 16.796875 11.34375 17.875 11.34375 L 19.601562 11.34375 L 19.601562 8.929688 C 19.296875 8.890625 18.65625 8.800781 17.441406 8.800781 C 14.910156 8.800781 13.425781 10.136719 13.425781 13.183594 L 13.425781 15.023438 L 10.824219 15.023438 L 10.824219 17.789062 L 13.425781 17.789062 L 13.425781 24.207031 C 9.003906 23.460938 5.648438 19.640625 5.648438 15 C 5.648438 9.824219 9.824219 5.648438 15 5.648438 Z M 15 5.648438 "/>
</g>
</svg>
