<?xml version="1.0" encoding="UTF-8"?>
<svg xmlns="http://www.w3.org/2000/svg" xmlns:xlink="http://www.w3.org/1999/xlink" viewBox="0 0 40 40" width="40px" height="40px">
<g id="surface91223842">
<path style="fill-rule:nonzero;fill:rgb(0%,0%,0%);fill-opacity:1;stroke-width:10;stroke-linecap:butt;stroke-linejoin:round;stroke:rgb(100%,100%,100%);stroke-opacity:1;stroke-miterlimit:10;" d="M 144.47801 86.000001 C 144.47801 118.296214 118.296214 144.47801 86.000001 144.47801 C 75.601935 144.47801 65.861525 141.740742 57.383102 136.977184 L 28.019676 143.518189 L 35.538277 115.470074 C 30.472553 106.796132 27.521991 96.753556 27.521991 86.000001 C 27.521991 53.703787 53.703787 27.521991 86.000001 27.521991 C 118.296214 27.521991 144.47801 53.703787 144.47801 86.000001 Z M 30.952464 86.000001 C 30.952464 96.682458 33.956349 106.547289 39.235367 114.972388 L 32.836558 138.914601 L 57.951885 133.333417 C 66.181465 138.27472 75.690807 141.047537 86.000001 141.047537 C 116.287699 141.047537 141.047537 116.287699 141.047537 86.000001 C 141.047537 55.712302 116.287699 30.952464 86.000001 30.952464 C 55.712302 30.952464 30.952464 55.712302 30.952464 86.000001 Z M 67.621198 56.974289 C 68.740989 57.009838 69.949653 57.080936 71.104994 59.64046 C 72.473628 62.679895 75.477514 70.305143 75.868552 71.087219 C 76.241816 71.851522 76.508433 72.775794 75.975199 73.788939 C 75.477514 74.819858 75.210897 75.459739 74.464369 76.366237 C 73.682292 77.272735 72.846892 78.374753 72.135913 79.050182 C 71.371611 79.832259 70.57176 80.667659 71.460483 82.214038 C 72.349207 83.760417 75.441965 88.808367 80.027778 92.896495 C 85.928903 98.157739 90.905755 99.775216 92.452134 100.557292 C 93.998513 101.321595 94.905011 101.214948 95.793734 100.166254 C 96.700232 99.153109 99.650794 95.669313 100.681714 94.122934 C 101.694859 92.576555 102.743552 92.843172 104.147736 93.358632 C 105.569693 93.874091 113.159392 97.60673 114.705771 98.388807 C 116.25215 99.153109 117.265295 99.544148 117.656334 100.166254 C 118.047372 100.823909 118.047372 103.916667 116.76761 107.507111 C 115.487848 111.115328 109.177911 114.599125 106.35177 114.830193 C 103.507855 115.09681 100.841684 116.127729 87.812997 110.990907 C 72.118139 104.805391 62.217758 88.719495 61.435682 87.688575 C 60.671379 86.675431 55.161293 79.3168 55.161293 71.744875 C 55.161293 64.119627 59.142775 60.404762 60.546958 58.858383 C 61.968916 57.312004 63.639716 56.920966 64.670635 56.920966 C 65.68378 56.920966 66.7147 56.920966 67.621198 56.974289 Z M 67.621198 56.974289 " transform="matrix(0.219767,0,0,0.219767,1.1,1.1)"/>
<path style=" stroke:none;fill-rule:nonzero;fill:rgb(0%,0%,0%);fill-opacity:1;" d="M 20 7.148438 C 12.902344 7.148438 7.148438 12.902344 7.148438 20 C 7.148438 22.363281 7.796875 24.570312 8.910156 26.476562 L 7.257812 32.640625 L 13.710938 31.203125 C 15.574219 32.25 17.714844 32.851562 20 32.851562 C 27.097656 32.851562 32.851562 27.097656 32.851562 20 C 32.851562 12.902344 27.097656 7.148438 20 7.148438 Z M 20 7.902344 C 26.65625 7.902344 32.097656 13.34375 32.097656 20 C 32.097656 26.65625 26.65625 32.097656 20 32.097656 C 17.734375 32.097656 15.644531 31.488281 13.835938 30.402344 L 8.316406 31.628906 L 9.722656 26.367188 C 8.5625 24.515625 7.902344 22.347656 7.902344 20 C 7.902344 13.34375 13.34375 7.902344 20 7.902344 Z M 15.3125 13.609375 C 15.085938 13.609375 14.71875 13.695312 14.40625 14.035156 C 14.097656 14.375 13.222656 15.191406 13.222656 16.867188 C 13.222656 18.53125 14.433594 20.148438 14.601562 20.371094 C 14.773438 20.597656 16.949219 24.132812 20.398438 25.492188 C 23.261719 26.621094 23.847656 26.394531 24.472656 26.335938 C 25.09375 26.285156 26.480469 25.519531 26.761719 24.726562 C 27.042969 23.9375 27.042969 23.257812 26.957031 23.113281 C 26.871094 22.976562 26.648438 22.890625 26.308594 22.722656 C 25.96875 22.550781 24.300781 21.730469 23.988281 21.617188 C 23.679688 21.503906 23.449219 21.445312 23.226562 21.785156 C 23 22.125 22.351562 22.890625 22.152344 23.113281 C 21.957031 23.34375 21.757812 23.367188 21.417969 23.199219 C 21.078125 23.027344 19.984375 22.671875 18.6875 21.515625 C 17.679688 20.617188 17 19.507812 16.804688 19.167969 C 16.609375 18.828125 16.785156 18.644531 16.953125 18.472656 C 17.109375 18.324219 17.292969 18.082031 17.464844 17.882812 C 17.628906 17.683594 17.6875 17.542969 17.796875 17.316406 C 17.914062 17.09375 17.855469 16.890625 17.773438 16.722656 C 17.6875 16.550781 17.027344 14.875 16.726562 14.207031 C 16.472656 13.644531 16.207031 13.628906 15.960938 13.621094 C 15.761719 13.609375 15.535156 13.609375 15.3125 13.609375 Z M 15.3125 13.609375 "/>
</g>
</svg>
