<?xml version="1.0" encoding="UTF-8"?>
<svg xmlns="http://www.w3.org/2000/svg" xmlns:xlink="http://www.w3.org/1999/xlink" viewBox="0 0 30 30" width="30px" height="30px">
<g id="surface87942201">
<path style="fill-rule:nonzero;fill:rgb(0%,0%,0%);fill-opacity:1;stroke-width:15;stroke-linecap:butt;stroke-linejoin:round;stroke:rgb(100%,100%,100%);stroke-opacity:1;stroke-miterlimit:10;" d="M 164.823593 85.999998 L 143.328462 85.999998 L 143.328462 150.509734 L 93.156928 150.509734 L 93.156928 107.495129 L 78.843069 107.495129 L 78.843069 150.509734 L 28.671535 150.509734 L 28.671535 85.999998 L 7.176404 85.999998 L 85.999998 15.039289 Z M 43.009736 73.049364 L 43.009736 136.171533 L 64.504867 136.171533 L 64.504867 93.156928 L 107.495129 93.156928 L 107.495129 136.171533 L 128.99026 136.171533 L 128.99026 73.049364 L 85.999998 34.343523 Z M 43.009736 73.049364 " transform="matrix(0.160465,0,0,0.160465,1.2,1.2)"/>
<path style=" stroke:none;fill-rule:nonzero;fill:rgb(0%,0%,0%);fill-opacity:1;" d="M 15 3.613281 L 2.351562 15 L 5.800781 15 L 5.800781 25.351562 L 13.851562 25.351562 L 13.851562 18.449219 L 16.148438 18.449219 L 16.148438 25.351562 L 24.199219 25.351562 L 24.199219 15 L 27.648438 15 Z M 15 6.710938 L 21.898438 12.921875 L 21.898438 23.050781 L 18.449219 23.050781 L 18.449219 16.148438 L 11.550781 16.148438 L 11.550781 23.050781 L 8.101562 23.050781 L 8.101562 12.921875 Z M 15 6.710938 "/>
</g>
</svg>
