<?xml version="1.0" encoding="UTF-8"?>
<svg xmlns="http://www.w3.org/2000/svg" xmlns:xlink="http://www.w3.org/1999/xlink" viewBox="0 0 30 30" width="30px" height="30px">
<g id="surface44796593">
<path style="fill-rule:nonzero;fill:rgb(0%,0%,0%);fill-opacity:1;stroke-width:10;stroke-linecap:butt;stroke-linejoin:round;stroke:rgb(80.000001%,80.000001%,80.000001%);stroke-opacity:1;stroke-miterlimit:10;" d="M 164.837142 86.000003 L 143.34475 86.000003 L 143.34475 150.500956 L 93.156209 150.500956 L 93.156209 107.492395 L 78.843797 107.492395 L 78.843797 150.500956 L 28.655256 150.500956 L 28.655256 86.000003 L 7.162863 86.000003 L 86.000003 15.056087 Z M 42.991442 73.042753 L 42.991442 136.164769 L 64.50761 136.164769 L 64.50761 93.156209 L 107.492395 93.156209 L 107.492395 136.164769 L 129.008563 136.164769 L 129.008563 73.042753 L 86.000003 34.337426 Z M 42.991442 73.042753 " transform="matrix(0.164302,0,0,0.164302,0.87,0.87)"/>
<path style=" stroke:none;fill-rule:nonzero;fill:rgb(0%,0%,0%);fill-opacity:1;" d="M 15 3.34375 L 2.046875 15 L 5.578125 15 L 5.578125 25.597656 L 13.824219 25.597656 L 13.824219 18.53125 L 16.175781 18.53125 L 16.175781 25.597656 L 24.421875 25.597656 L 24.421875 15 L 27.953125 15 Z M 15 6.511719 L 22.066406 12.871094 L 22.066406 23.242188 L 18.53125 23.242188 L 18.53125 16.175781 L 11.46875 16.175781 L 11.46875 23.242188 L 7.933594 23.242188 L 7.933594 12.871094 Z M 15 6.511719 "/>
</g>
</svg>
