<?xml version="1.0" encoding="UTF-8"?>
<svg xmlns="http://www.w3.org/2000/svg" xmlns:xlink="http://www.w3.org/1999/xlink" viewBox="0 0 30 30" width="30px" height="30px">
<g id="surface45097270">
<path style="fill-rule:nonzero;fill:rgb(0%,0%,0%);fill-opacity:1;stroke-width:23;stroke-linecap:butt;stroke-linejoin:round;stroke:rgb(80.000001%,80.000001%,80.000001%);stroke-opacity:1;stroke-miterlimit:10;" d="M 154.810751 85.999998 C 154.810751 123.994288 123.994288 154.810751 85.999998 154.810751 C 73.648049 154.810751 62.082365 151.513516 52.063844 145.806764 L 17.823329 154.810751 L 27.00486 121.255047 C 20.816204 110.932165 17.189245 98.90994 17.189245 85.999998 C 17.189245 48.005709 48.005709 17.189245 85.999998 17.189245 C 123.994288 17.189245 154.810751 48.005709 154.810751 85.999998 Z M 57.897413 56.045889 C 56.350249 57.745233 51.937027 61.854094 51.937027 70.249361 C 51.937027 78.619265 58.024229 86.735535 58.886583 87.851522 C 59.748937 88.992873 70.680538 106.772577 88.003702 113.595317 C 102.384718 119.251342 105.326866 118.135355 108.471921 117.830995 C 111.591612 117.577362 118.541169 113.722133 119.961516 109.740088 C 121.381863 105.783407 121.381863 102.359355 120.925323 101.649181 C 120.51951 100.939008 119.378159 100.533194 117.678815 99.670841 C 115.979471 98.808487 107.584204 94.699625 106.011677 94.141632 C 104.464513 93.558275 103.323162 93.279278 102.207175 94.978622 C 101.065825 96.677966 97.819317 100.533194 96.804783 101.649181 C 95.815612 102.790532 94.826442 102.917349 93.127098 102.080358 C 91.40239 101.218005 85.923908 99.417207 79.405529 93.609001 C 74.358223 89.119689 70.934172 83.51439 69.945001 81.815046 C 68.955831 80.115702 69.843548 79.177259 70.680538 78.340268 C 71.466802 77.579368 72.405246 76.361927 73.267599 75.372757 C 74.079226 74.358223 74.383586 73.673413 74.94158 72.506699 C 75.524937 71.390712 75.220577 70.401541 74.814763 69.539188 C 74.383586 68.676834 71.060988 60.256204 69.539188 56.908242 C 68.271021 54.067548 66.926763 53.991458 65.709323 53.940731 C 64.720152 53.890004 63.578802 53.915368 62.462815 53.915368 C 61.296101 53.915368 59.46994 54.321181 57.897413 56.045889 Z M 57.897413 56.045889 " transform="matrix(0.154012,0,0,0.154012,1.755,1.755)"/>
<path style=" stroke:none;fill-rule:nonzero;fill:rgb(0%,0%,0%);fill-opacity:1;" d="M 15 4.402344 C 9.148438 4.402344 4.402344 9.148438 4.402344 15 C 4.402344 16.988281 4.960938 18.839844 5.914062 20.429688 L 4.5 25.597656 L 9.773438 24.210938 C 11.316406 25.089844 13.097656 25.597656 15 25.597656 C 20.851562 25.597656 25.597656 20.851562 25.597656 15 C 25.597656 9.148438 20.851562 4.402344 15 4.402344 Z M 11.375 10.058594 C 11.546875 10.058594 11.722656 10.054688 11.875 10.0625 C 12.0625 10.070312 12.269531 10.082031 12.464844 10.519531 C 12.699219 11.035156 13.210938 12.332031 13.277344 12.464844 C 13.339844 12.597656 13.386719 12.75 13.296875 12.921875 C 13.210938 13.101562 13.164062 13.207031 13.039062 13.363281 C 12.90625 13.515625 12.761719 13.703125 12.640625 13.820312 C 12.511719 13.949219 12.375 14.09375 12.527344 14.355469 C 12.679688 14.617188 13.207031 15.480469 13.984375 16.171875 C 14.988281 17.066406 15.832031 17.34375 16.097656 17.476562 C 16.359375 17.605469 16.511719 17.585938 16.664062 17.410156 C 16.820312 17.238281 17.320312 16.644531 17.496094 16.382812 C 17.667969 16.121094 17.84375 16.164062 18.082031 16.253906 C 18.324219 16.339844 19.617188 16.972656 19.878906 17.105469 C 20.140625 17.238281 20.316406 17.300781 20.378906 17.410156 C 20.449219 17.519531 20.449219 18.046875 20.230469 18.65625 C 20.011719 19.269531 18.941406 19.863281 18.460938 19.902344 C 17.976562 19.949219 17.523438 20.121094 15.308594 19.25 C 12.640625 18.199219 10.957031 15.460938 10.824219 15.285156 C 10.691406 15.113281 9.753906 13.863281 9.753906 12.574219 C 9.753906 11.28125 10.433594 10.648438 10.671875 10.386719 C 10.914062 10.121094 11.195312 10.058594 11.375 10.058594 Z M 11.375 10.058594 "/>
</g>
</svg>
