<?xml version="1.0" encoding="UTF-8"?>
<svg xmlns="http://www.w3.org/2000/svg" xmlns:xlink="http://www.w3.org/1999/xlink" viewBox="0 0 30 30" width="30px" height="30px">
<g id="surface71445229">
<path style="fill-rule:nonzero;fill:rgb(0%,0%,0%);fill-opacity:1;stroke-width:16;stroke-linecap:butt;stroke-linejoin:round;stroke:rgb(91.764706%,90.980393%,90.980393%);stroke-opacity:1;stroke-miterlimit:10;" d="M 116.962543 10.319217 C 141.634673 10.319217 161.68078 30.365323 161.68078 55.037453 L 161.68078 116.962543 C 161.68078 141.634673 141.634673 161.68078 116.962543 161.68078 L 55.037453 161.68078 C 30.365323 161.68078 10.319217 141.634673 10.319217 116.962543 L 10.319217 55.037453 C 10.319217 30.365323 30.365323 10.319217 55.037453 10.319217 Z M 120.389228 44.708446 C 120.389228 48.502276 123.49772 51.610768 127.29155 51.610768 C 131.060903 51.610768 134.169396 48.502276 134.169396 44.708446 C 134.169396 40.939093 131.060903 37.8306 127.29155 37.8306 C 123.49772 37.8306 120.389228 40.939093 120.389228 44.708446 Z M 48.159607 85.999998 C 48.159607 106.878299 65.121697 123.840389 85.999998 123.840389 C 106.878299 123.840389 123.840389 106.878299 123.840389 85.999998 C 123.840389 65.121697 106.878299 48.159607 85.999998 48.159607 C 65.121697 48.159607 48.159607 65.121697 48.159607 85.999998 Z M 116.962543 85.999998 C 116.962543 103.059993 103.059993 116.962543 85.999998 116.962543 C 68.940003 116.962543 55.037453 103.059993 55.037453 85.999998 C 55.037453 68.940003 68.940003 55.037453 85.999998 55.037453 C 103.059993 55.037453 116.962543 68.940003 116.962543 85.999998 Z M 116.962543 85.999998 " transform="matrix(0.159593,0,0,0.159593,1.275,1.275)"/>
<path style=" stroke:none;fill-rule:nonzero;fill:rgb(0%,0%,0%);fill-opacity:1;" d="M 10.058594 2.921875 C 6.121094 2.921875 2.921875 6.121094 2.921875 10.058594 L 2.921875 19.941406 C 2.921875 23.878906 6.121094 27.078125 10.058594 27.078125 L 19.941406 27.078125 C 23.878906 27.078125 27.078125 23.878906 27.078125 19.941406 L 27.078125 10.058594 C 27.078125 6.121094 23.878906 2.921875 19.941406 2.921875 Z M 21.589844 7.3125 C 22.191406 7.3125 22.6875 7.808594 22.6875 8.410156 C 22.6875 9.015625 22.191406 9.511719 21.589844 9.511719 C 20.984375 9.511719 20.488281 9.015625 20.488281 8.410156 C 20.488281 7.808594 20.984375 7.3125 21.589844 7.3125 Z M 15 8.960938 C 18.332031 8.960938 21.039062 11.667969 21.039062 15 C 21.039062 18.332031 18.332031 21.039062 15 21.039062 C 11.667969 21.039062 8.960938 18.332031 8.960938 15 C 8.960938 11.667969 11.667969 8.960938 15 8.960938 Z M 15 10.058594 C 12.277344 10.058594 10.058594 12.277344 10.058594 15 C 10.058594 17.722656 12.277344 19.941406 15 19.941406 C 17.722656 19.941406 19.941406 17.722656 19.941406 15 C 19.941406 12.277344 17.722656 10.058594 15 10.058594 Z M 15 10.058594 "/>
</g>
</svg>
